<svg width="655" height="648" xmlns="http://www.w3.org/2000/svg" xmlns:xlink="http://www.w3.org/1999/xlink" overflow="hidden"><defs><clipPath id="clip0"><rect x="634" y="1563" width="655" height="648"/></clipPath><clipPath id="clip1"><rect x="955" y="1742" width="309" height="285"/></clipPath><clipPath id="clip2"><rect x="955" y="1742" width="309" height="285"/></clipPath><clipPath id="clip3"><rect x="955" y="1742" width="309" height="285"/></clipPath><clipPath id="clip4"><rect x="955" y="1742" width="309" height="285"/></clipPath></defs><g clip-path="url(#clip0)" transform="translate(-634 -1563)"><path d="M634 1671C634 1611.35 682.354 1563 742.002 1563L1181 1563C1240.65 1563 1289 1611.35 1289 1671L1289 2103C1289 2162.65 1240.65 2211 1181 2211L742.002 2211C682.354 2211 634 2162.65 634 2103Z" fill="#E2F0D9" fill-rule="evenodd"/><path d="M664.5 1750C664.5 1746.96 666.962 1744.5 670 1744.5L827 1744.5C830.038 1744.5 832.5 1746.96 832.5 1750L832.5 1772C832.5 1775.04 830.038 1777.5 827 1777.5L670 1777.5C666.962 1777.5 664.5 1775.04 664.5 1772Z" stroke="#000000" stroke-width="9.16667" stroke-linejoin="round" stroke-miterlimit="10" fill-rule="evenodd"/><path d="M695.5 1811.83C695.5 1808.89 697.888 1806.5 700.833 1806.5L858.167 1806.5C861.112 1806.5 863.5 1808.89 863.5 1811.83L863.5 1833.17C863.5 1836.11 861.112 1838.5 858.167 1838.5L700.833 1838.5C697.888 1838.5 695.5 1836.11 695.5 1833.17Z" stroke="#000000" stroke-width="9.16667" stroke-linejoin="round" stroke-miterlimit="10" fill-rule="evenodd"/><path d="M750.5 1876.83C750.5 1873.89 752.888 1871.5 755.833 1871.5L913.167 1871.5C916.112 1871.5 918.5 1873.89 918.5 1876.83L918.5 1898.17C918.5 1901.11 916.112 1903.5 913.167 1903.5L755.833 1903.5C752.888 1903.5 750.5 1901.11 750.5 1898.17Z" stroke="#000000" stroke-width="9.16667" stroke-linejoin="round" stroke-miterlimit="10" fill-rule="evenodd"/><path d="M695.5 1936.83C695.5 1933.89 697.888 1931.5 700.833 1931.5L858.167 1931.5C861.112 1931.5 863.5 1933.89 863.5 1936.83L863.5 1958.17C863.5 1961.11 861.112 1963.5 858.167 1963.5L700.833 1963.5C697.888 1963.5 695.5 1961.11 695.5 1958.17Z" stroke="#000000" stroke-width="9.16667" stroke-linejoin="round" stroke-miterlimit="10" fill-rule="evenodd"/><g clip-path="url(#clip1)"><g clip-path="url(#clip2)"><g clip-path="url(#clip3)"><g clip-path="url(#clip4)"><path d="M216.965 40.0527 318.172 40.0527 318.172 72.1918 216.965 72.1918Z" fill-rule="evenodd" transform="matrix(1 0 0 1.23661 740.4 1694.8)"/><path d="M318.172 40.0527 419.379 40.0527 419.379 72.1918 318.172 72.1918Z" fill-rule="evenodd" transform="matrix(1 0 0 1.23661 740.4 1694.8)"/><path d="M419.379 40.0527 520.587 40.0527 520.587 72.1918 419.379 72.1918Z" fill-rule="evenodd" transform="matrix(1 0 0 1.23661 740.4 1694.8)"/><path d="M216.965 72.1918 318.172 72.1918 318.172 168.609 216.965 168.609Z" fill="#FFFFFF" fill-rule="evenodd" transform="matrix(1 0 0 1.23661 740.4 1694.8)"/><path d="M318.172 72.1918 419.379 72.1918 419.379 104.331 318.172 104.331Z" fill="#FFFFFF" fill-rule="evenodd" transform="matrix(1 0 0 1.23661 740.4 1694.8)"/><path d="M419.379 72.1918 520.587 72.1918 520.587 104.331 419.379 104.331Z" fill="#FFFFFF" fill-rule="evenodd" transform="matrix(1 0 0 1.23661 740.4 1694.8)"/><path d="M318.172 104.331 419.379 104.331 419.379 168.609 318.172 168.609Z" fill="#FFFFFF" fill-rule="evenodd" transform="matrix(1 0 0 1.23661 740.4 1694.8)"/><path d="M419.379 104.331 520.587 104.331 520.587 136.47 419.379 136.47Z" fill="#FFFFFF" fill-rule="evenodd" transform="matrix(1 0 0 1.23661 740.4 1694.8)"/><path d="M419.379 136.47 520.587 136.47 520.587 168.609 419.379 168.609Z" fill="#FFFFFF" fill-rule="evenodd" transform="matrix(1 0 0 1.23661 740.4 1694.8)"/><path d="M216.965 168.609 318.172 168.609 318.172 265.027 216.965 265.027Z" fill="#FFFFFF" fill-rule="evenodd" transform="matrix(1 0 0 1.23661 740.4 1694.8)"/><path d="M318.172 168.609 419.379 168.609 419.379 232.887 318.172 232.887Z" fill="#FFFFFF" fill-rule="evenodd" transform="matrix(1 0 0 1.23661 740.4 1694.8)"/><path d="M419.379 168.609 520.587 168.609 520.587 200.748 419.379 200.748Z" fill="#FFFFFF" fill-rule="evenodd" transform="matrix(1 0 0 1.23661 740.4 1694.8)"/><path d="M419.379 200.748 520.587 200.748 520.587 232.887 419.379 232.887Z" fill="#FFFFFF" fill-rule="evenodd" transform="matrix(1 0 0 1.23661 740.4 1694.8)"/><path d="M318.172 232.887 419.379 232.887 419.379 265.027 318.172 265.027Z" fill="#FFFFFF" fill-rule="evenodd" transform="matrix(1 0 0 1.23661 740.4 1694.8)"/><path d="M419.379 232.887 520.587 232.887 520.587 265.027 419.379 265.027Z" fill="#FFFFFF" fill-rule="evenodd" transform="matrix(1 0 0 1.23661 740.4 1694.8)"/><path d="M318.172 38.7974 318.172 266.282" stroke="#000000" stroke-width="2.51087" stroke-linejoin="round" stroke-miterlimit="10" fill="none" fill-rule="evenodd" transform="matrix(1 0 0 1.23661 740.4 1694.8)"/><path d="M419.379 38.7974 419.379 266.282" stroke="#000000" stroke-width="2.51087" stroke-linejoin="round" stroke-miterlimit="10" fill="none" fill-rule="evenodd" transform="matrix(1 0 0 1.23661 740.4 1694.8)"/><path d="M215.71 72.1918 521.842 72.1918" stroke="#000000" stroke-width="2.51087" stroke-linejoin="round" stroke-miterlimit="10" fill="none" fill-rule="evenodd" transform="matrix(1 0 0 1.23661 740.4 1694.8)"/><path d="M316.917 104.331 521.842 104.331" stroke="#000000" stroke-width="2.51087" stroke-linejoin="round" stroke-miterlimit="10" fill="none" fill-rule="evenodd" transform="matrix(1 0 0 1.23661 740.4 1694.8)"/><path d="M418.124 136.47 521.842 136.47" stroke="#000000" stroke-width="2.51087" stroke-linejoin="round" stroke-miterlimit="10" fill="none" fill-rule="evenodd" transform="matrix(1 0 0 1.23661 740.4 1694.8)"/><path d="M215.71 168.609 521.842 168.609" stroke="#000000" stroke-width="2.51087" stroke-linejoin="round" stroke-miterlimit="10" fill="none" fill-rule="evenodd" transform="matrix(1 0 0 1.23661 740.4 1694.8)"/><path d="M418.124 200.748 521.842 200.748" stroke="#000000" stroke-width="2.51087" stroke-linejoin="round" stroke-miterlimit="10" fill="none" fill-rule="evenodd" transform="matrix(1 0 0 1.23661 740.4 1694.8)"/><path d="M316.917 232.887 521.842 232.887" stroke="#000000" stroke-width="2.51087" stroke-linejoin="round" stroke-miterlimit="10" fill="none" fill-rule="evenodd" transform="matrix(1 0 0 1.23661 740.4 1694.8)"/><path d="M216.965 38.7974 216.965 266.282" stroke="#000000" stroke-width="2.51087" stroke-linejoin="round" stroke-miterlimit="10" fill="none" fill-rule="evenodd" transform="matrix(1 0 0 1.23661 740.4 1694.8)"/><path d="M520.587 38.7974 520.587 266.282" stroke="#000000" stroke-width="2.51087" stroke-linejoin="round" stroke-miterlimit="10" fill="none" fill-rule="evenodd" transform="matrix(1 0 0 1.23661 740.4 1694.8)"/><path d="M215.71 40.0527 521.842 40.0527" stroke="#000000" stroke-width="2.51087" stroke-linejoin="round" stroke-miterlimit="10" fill="none" fill-rule="evenodd" transform="matrix(1 0 0 1.23661 740.4 1694.8)"/><path d="M215.71 265.027 521.842 265.027" stroke="#000000" stroke-width="2.51087" stroke-linejoin="round" stroke-miterlimit="10" fill="none" fill-rule="evenodd" transform="matrix(1 0 0 1.23661 740.4 1694.8)"/></g></g></g></g><path d="M658.5 1987.83C658.5 1984.89 660.888 1982.5 663.833 1982.5L821.166 1982.5C824.112 1982.5 826.5 1984.89 826.5 1987.83L826.5 2009.17C826.5 2012.11 824.112 2014.5 821.166 2014.5L663.833 2014.5C660.888 2014.5 658.5 2012.11 658.5 2009.17Z" stroke="#000000" stroke-width="9.16667" stroke-linejoin="round" stroke-miterlimit="10" fill-rule="evenodd"/><path d="M0 110.396 46.5001 168 93.0002 110.396 65.7591 110.396 46.5001 0 27.241 110.396Z" fill="#548235" fill-rule="evenodd" transform="matrix(6.12323e-17 1 1 -6.12323e-17 872 1911)"/></g></svg>